<svg width="24" height="24" viewBox="0 0 24 24" fill="none" xmlns="http://www.w3.org/2000/svg">
<path d="M23.4551 12.0472C23.4551 18.3484 18.3323 23.4567 12.0132 23.4567C5.69399 23.4567 0.571289 18.3484 0.571289 12.0472C0.571289 5.74598 5.69399 0.637817 12.0132 0.637817C18.3323 0.637817 23.4551 5.74598 23.4551 12.0472Z" fill="#151A29"/>
<path fill-rule="evenodd" clip-rule="evenodd" d="M10.7664 0.323334C8.28424 0.588064 5.81655 1.70202 3.98514 3.3846C1.33883 5.81572 -0.116375 9.47912 0.207847 12.8936C0.295751 13.819 0.317333 13.893 0.522781 13.9709C0.646951 14.018 0.698996 14.1309 0.794957 14.5616C0.860254 14.8545 1.01454 15.3831 1.13789 15.7363C1.343 16.3238 1.35345 16.3918 1.26049 16.5332C1.12581 16.7382 1.18967 16.909 1.46041 17.0678C1.58254 17.1394 1.90231 17.3847 2.17107 17.6129C2.80334 18.1498 3.29181 18.3935 3.88522 18.4678C4.85016 18.5887 5.52831 18.3662 6.40967 17.6402C6.68061 17.4168 7.0743 17.1558 7.28452 17.0598C7.61817 16.9075 7.7379 16.8885 8.22626 16.9112C8.89661 16.9423 9.08233 17.0243 9.79778 17.6054C10.4639 18.1466 10.962 18.3929 11.5549 18.475C12.4805 18.6029 13.2095 18.3592 14.0822 17.6305C14.7812 17.0468 15.0157 16.9428 15.7056 16.9108C16.2303 16.8866 16.3057 16.9006 16.696 17.0944C16.9282 17.2098 17.2922 17.4536 17.5045 17.636C18.3433 18.3571 18.9994 18.5875 19.912 18.4814C20.6246 18.3986 21.0434 18.1935 21.8295 17.5423C22.1667 17.2631 22.4955 17.0178 22.5602 16.9973C22.7303 16.9435 22.7812 16.7133 22.6628 16.5332C22.5699 16.3918 22.5803 16.3238 22.7854 15.7363C22.9089 15.3831 23.063 14.8545 23.1284 14.5616C23.2244 14.1309 23.2764 14.018 23.4006 13.9709C23.6072 13.8925 23.6293 13.8155 23.7163 12.8658C23.8727 11.1554 23.5361 9.13089 22.8145 7.44294C21.2731 3.83798 18.087 1.27022 14.1775 0.48209C13.5115 0.347852 11.4403 0.251413 10.7664 0.323334ZM10.8006 0.969394C6.79631 1.42162 3.33389 3.93395 1.7722 7.5203C1.12212 9.01341 0.901097 10.0309 0.851989 11.7569C0.81176 13.1727 0.85192 13.4254 1.11727 13.4256C1.38541 13.4256 2.07191 13.7996 2.60451 14.2358C3.22542 14.7442 3.54385 14.9051 4.04463 14.9635C4.807 15.0524 5.20184 14.887 6.31882 14.0101C7.47446 13.1029 8.92538 13.1362 10.0822 14.0965C10.2693 14.2519 10.4423 14.379 10.4666 14.379C10.6345 14.379 10.9063 12.0959 10.778 11.7625C10.7435 11.6726 10.7045 11.6724 10.4453 11.7603C10.0292 11.9013 9.10295 11.9775 8.5373 11.9173C7.07129 11.7611 5.6158 10.8034 4.89742 9.5225C4.46461 8.75079 4.56576 8.60619 5.45359 8.72708C6.3245 8.84567 6.54838 8.77204 7.11234 8.18141C7.74105 7.52302 7.8771 7.46453 8.7592 7.47366L9.48401 7.48114L9.41906 7.20122C9.33088 6.82153 9.39015 6.14946 9.53714 5.86259C9.60346 5.73319 9.8654 5.42807 10.1192 5.18459C10.719 4.60929 10.7912 4.39407 10.6702 3.54212C10.545 2.65959 10.6799 2.55172 11.4179 2.94395C12.7796 3.66772 13.7135 5.10061 13.906 6.76174C13.9641 7.26333 13.8401 8.15595 13.6258 8.77803L13.4555 9.27269L13.8591 9.73153C14.3824 10.3265 14.6541 10.7329 14.937 11.3435C15.1564 11.8169 15.3861 12.5641 15.4748 13.0931L15.5162 13.3397L16.0175 13.3718C16.6573 13.4127 17.2069 13.6643 17.9038 14.2354C18.6515 14.8481 18.9078 14.9564 19.6113 14.9564C20.3146 14.9564 20.5709 14.8483 21.3188 14.2358C21.8515 13.7996 22.5379 13.4256 22.8061 13.4256C23.0684 13.4254 23.1105 13.17 23.0755 11.7909C23.029 9.97058 22.7189 8.6696 21.9613 7.11942C19.9385 2.97976 15.3565 0.454848 10.8006 0.969394Z" fill="#10C5CF"/>
<path fill-rule="evenodd" clip-rule="evenodd" d="M10.8541 0.356291C5.99333 0.845641 1.88924 4.34711 0.665607 9.0487C0.365778 10.2005 0.27215 11.0762 0.306562 12.4047C0.344382 13.8634 0.357806 13.8956 0.976541 14.0105C1.43194 14.095 1.69694 14.2445 2.41026 14.8188C2.65714 15.0176 3.04044 15.2651 3.26205 15.3687C3.62319 15.5376 3.73932 15.5569 4.38053 15.5554C5.26945 15.5533 5.58407 15.4293 6.4221 14.7506C7.22365 14.1014 7.47687 13.9934 8.19652 13.9934C8.91393 13.9934 9.16476 14.1006 9.96891 14.751C10.8073 15.4293 11.1242 15.5537 12.0125 15.5537C12.9013 15.5537 13.2146 15.4305 14.0541 14.7506C14.7468 14.1896 15.0664 14.0348 15.6432 13.981C16.325 13.9174 16.7123 14.065 17.5166 14.6945C18.4708 15.4412 18.7478 15.5533 19.6444 15.5554C20.2857 15.5569 20.4018 15.5376 20.7629 15.3687C20.9845 15.2651 21.3679 15.0176 21.6147 14.8188C22.3281 14.2445 22.5931 14.095 23.0485 14.0105C23.6633 13.8963 23.6752 13.8676 23.7163 12.4085C23.7419 11.4975 23.7229 11.0172 23.6387 10.4476C23.336 8.40005 22.631 6.66217 21.4608 5.07838C19.0082 1.75928 14.9342 -0.0544606 10.8541 0.356291ZM10.82 0.932609C9.37675 1.13771 8.30971 1.44653 7.17629 1.98712C3.99165 3.506 1.66629 6.54799 1.04448 10.0085C0.881687 10.9144 0.805708 12.3034 0.884549 12.9329L0.939336 13.3708L1.24598 13.4495C1.7056 13.5674 2.03943 13.7595 2.71376 14.2943C3.44712 14.876 3.81816 15.0109 4.55519 14.9636C5.14618 14.9257 5.44853 14.7839 6.12574 14.2268C6.75653 13.7078 7.13301 13.5135 7.70617 13.4113C8.5645 13.2581 9.35147 13.4908 10.1376 14.1303L10.5181 14.4397L10.6173 14.2026C10.7854 13.8007 10.939 12.7361 10.9055 12.2045C10.8884 11.9325 10.8591 11.6946 10.8403 11.6759C10.8216 11.6572 10.6101 11.6957 10.3702 11.7615C9.77777 11.9241 8.52878 11.9246 7.92396 11.7625C6.63721 11.4176 5.4112 10.4236 4.88411 9.29791C4.74605 9.00298 4.73747 8.94118 4.81808 8.82155C4.88084 8.72846 4.97357 8.68933 5.10558 8.70029C5.21275 8.70914 5.52056 8.73602 5.78953 8.75996C6.05848 8.78386 6.36131 8.78269 6.46249 8.75731C6.56369 8.73194 6.89602 8.47252 7.20102 8.1808C7.92041 7.4928 8.32634 7.35894 9.22636 7.51301L9.5407 7.56677L9.50724 6.92799C9.46206 6.06572 9.53443 5.8747 10.144 5.24755C10.4169 4.96684 10.6729 4.65095 10.713 4.54561C10.8044 4.30545 10.8045 3.67504 10.7131 3.27906C10.6514 3.01175 10.6595 2.96188 10.7846 2.83687L10.9257 2.696L11.3499 2.91628C13.4431 4.00332 14.4308 6.46864 13.6608 8.6841L13.4479 9.29654L13.775 9.6368C14.5896 10.4844 15.0779 11.3767 15.3816 12.5728C15.4401 12.8028 15.4879 13.0707 15.4879 13.1682C15.4879 13.3293 15.5124 13.3455 15.757 13.3455C16.5171 13.3455 17.0891 13.5898 17.977 14.2934C18.6506 14.8272 19.0193 14.9787 19.6444 14.9787C20.2695 14.9787 20.6384 14.8271 21.3113 14.294C21.9859 13.7593 22.3197 13.5672 22.7791 13.4495L23.0856 13.3709L23.1396 12.8989C23.2141 12.2461 23.1436 10.9153 22.9896 10.0614C22.1735 5.54193 18.7565 2.05537 14.1931 1.08572C13.7119 0.983443 13.222 0.942409 12.2851 0.925873C11.5917 0.913624 10.9324 0.916687 10.82 0.932609ZM11.3849 4.17575C11.3434 4.81149 11.1887 5.10763 10.6297 5.6227C10.0483 6.1584 9.97062 6.40644 10.1397 7.18699C10.3879 8.33179 10.3369 8.40488 9.44361 8.1861C9.1101 8.10443 8.75509 8.03762 8.65458 8.03762C8.31257 8.03762 7.9495 8.24231 7.62447 8.61822C7.16389 9.15104 6.79878 9.34451 6.17909 9.3842C5.90196 9.40195 5.67525 9.44768 5.67525 9.48572C5.67525 9.52383 5.91422 9.79011 6.20621 10.0775C7.37684 11.2293 9.00047 11.6022 10.5312 11.0707C11.0644 10.8855 11.2862 10.8851 11.357 11.0693C11.453 11.319 11.5405 12.4038 11.4995 12.8352C11.4447 13.4109 11.3075 14.0923 11.1667 14.4879L11.0628 14.7796L11.248 14.8569C11.35 14.8994 11.6939 14.9362 12.0125 14.9387C12.7132 14.9441 12.9638 14.8392 13.7161 14.2252C13.9972 13.9958 14.3805 13.731 14.5679 13.6367C14.7552 13.5424 14.9174 13.4576 14.9281 13.4482C14.9389 13.4389 14.887 13.1534 14.8128 12.8139C14.5734 11.719 14.052 10.7724 13.2333 9.94663C12.9741 9.68524 12.7621 9.42312 12.7621 9.36425C12.7621 9.30532 12.8225 9.13894 12.8962 8.99454C13.1392 8.51873 13.3072 7.76855 13.3072 7.15867C13.3072 5.98282 12.9179 5.0474 12.0797 4.20977C11.7895 3.91975 11.5217 3.68239 11.4846 3.68239C11.4475 3.68239 11.4026 3.90437 11.3849 4.17575ZM7.49778 16.2733C7.08553 16.3773 6.63068 16.6408 6.0841 17.0925C5.3626 17.6889 5.09194 17.8014 4.38053 17.8014C3.67008 17.8014 3.3984 17.6895 2.67773 17.0995C1.76808 16.3547 1.38185 16.2419 1.32659 16.7045C1.30935 16.8483 1.34921 16.9095 1.52202 17.0037C1.64141 17.069 1.95425 17.2996 2.21721 17.5162C2.84863 18.0361 3.16909 18.2169 3.70081 18.353C4.6358 18.5924 5.44554 18.374 6.38802 17.6278C7.30481 16.9021 7.4272 16.8497 8.19652 16.8525C8.96319 16.8554 9.10793 16.9163 9.96823 17.5987C10.6612 18.1484 10.9021 18.2757 11.4548 18.3843C12.3693 18.5639 13.1154 18.3439 14.02 17.6278C14.9341 16.9042 15.0592 16.8506 15.8284 16.8506C16.5932 16.8506 16.7297 16.9081 17.6002 17.5987C18.2932 18.1484 18.534 18.2757 19.0869 18.3843C20.007 18.5651 20.7532 18.3432 21.6711 17.6159C22.0137 17.3444 22.3898 17.069 22.507 17.0037C22.6755 16.9101 22.7156 16.8474 22.6985 16.7045C22.6432 16.2419 22.2569 16.3547 21.3473 17.0995C20.6359 17.682 20.3578 17.7963 19.6444 17.7998C18.9255 17.8031 18.6757 17.6967 17.8701 17.0442C17.0305 16.3644 16.7172 16.2411 15.8284 16.2411C14.9402 16.2411 14.6233 16.3656 13.7849 17.0438C12.9808 17.6943 12.7299 17.8014 12.0125 17.8014C11.2929 17.8014 11.0396 17.6936 10.2381 17.0442C9.47808 16.4287 9.08156 16.2595 8.33281 16.2308C8.01423 16.2187 7.63851 16.2377 7.49778 16.2733Z" fill="white"/>
<mask id="mask0_56_3513" style="mask-type:luminance" maskUnits="userSpaceOnUse" x="0" y="0" width="24" height="19">
<path d="M23.9735 0H0V18.6761H23.9735V0Z" fill="white"/>
<path fill-rule="evenodd" clip-rule="evenodd" d="M10.8541 0.356291C5.99333 0.845641 1.88924 4.34711 0.665607 9.0487C0.365778 10.2005 0.27215 11.0762 0.306562 12.4047C0.344382 13.8634 0.357806 13.8956 0.976541 14.0105C1.43194 14.095 1.69694 14.2445 2.41026 14.8188C2.65714 15.0176 3.04044 15.2651 3.26205 15.3687C3.62319 15.5376 3.73932 15.5569 4.38053 15.5554C5.26945 15.5533 5.58407 15.4293 6.4221 14.7506C7.22365 14.1014 7.47687 13.9934 8.19652 13.9934C8.91393 13.9934 9.16476 14.1006 9.96891 14.751C10.8073 15.4293 11.1242 15.5537 12.0125 15.5537C12.9013 15.5537 13.2146 15.4305 14.0541 14.7506C14.7468 14.1896 15.0664 14.0348 15.6432 13.981C16.325 13.9174 16.7123 14.065 17.5166 14.6945C18.4708 15.4412 18.7478 15.5533 19.6444 15.5554C20.2857 15.5569 20.4018 15.5376 20.7629 15.3687C20.9845 15.2651 21.3679 15.0176 21.6147 14.8188C22.3281 14.2445 22.5931 14.095 23.0485 14.0105C23.6633 13.8963 23.6752 13.8676 23.7163 12.4085C23.7419 11.4975 23.7229 11.0172 23.6387 10.4476C23.336 8.40005 22.631 6.66217 21.4608 5.07838C19.0082 1.75928 14.9342 -0.0544606 10.8541 0.356291ZM10.82 0.932609C9.37675 1.13771 8.30971 1.44653 7.17629 1.98712C3.99165 3.506 1.66629 6.54799 1.04448 10.0085C0.881687 10.9144 0.805708 12.3034 0.884549 12.9329L0.939336 13.3708L1.24598 13.4495C1.7056 13.5674 2.03943 13.7595 2.71376 14.2943C3.44712 14.876 3.81816 15.0109 4.55519 14.9636C5.14618 14.9257 5.44853 14.7839 6.12574 14.2268C6.75653 13.7078 7.13301 13.5135 7.70617 13.4113C8.5645 13.2581 9.35147 13.4908 10.1376 14.1303L10.5181 14.4397L10.6173 14.2026C10.7854 13.8007 10.939 12.7361 10.9055 12.2045C10.8884 11.9325 10.8591 11.6946 10.8403 11.6759C10.8216 11.6572 10.6101 11.6957 10.3702 11.7615C9.77777 11.9241 8.52878 11.9246 7.92396 11.7625C6.63721 11.4176 5.4112 10.4236 4.88411 9.29791C4.74605 9.00298 4.73747 8.94118 4.81808 8.82155C4.88084 8.72846 4.97357 8.68933 5.10558 8.70029C5.21275 8.70914 5.52056 8.73602 5.78953 8.75996C6.05848 8.78386 6.36131 8.78269 6.46249 8.75731C6.56369 8.73194 6.89602 8.47252 7.20102 8.1808C7.92041 7.4928 8.32634 7.35894 9.22636 7.51301L9.5407 7.56677L9.50724 6.92799C9.46206 6.06572 9.53443 5.8747 10.144 5.24755C10.4169 4.96684 10.6729 4.65095 10.713 4.54561C10.8044 4.30545 10.8045 3.67504 10.7131 3.27906C10.6514 3.01175 10.6595 2.96188 10.7846 2.83687L10.9257 2.696L11.3499 2.91628C13.4431 4.00332 14.4308 6.46864 13.6608 8.6841L13.4479 9.29654L13.775 9.6368C14.5896 10.4844 15.0779 11.3767 15.3816 12.5728C15.4401 12.8028 15.4879 13.0707 15.4879 13.1682C15.4879 13.3293 15.5124 13.3455 15.757 13.3455C16.5171 13.3455 17.0891 13.5898 17.977 14.2934C18.6506 14.8272 19.0193 14.9787 19.6444 14.9787C20.2695 14.9787 20.6384 14.8271 21.3113 14.294C21.9859 13.7593 22.3197 13.5672 22.7791 13.4495L23.0856 13.3709L23.1396 12.8989C23.2141 12.2461 23.1436 10.9153 22.9896 10.0614C22.1735 5.54193 18.7565 2.05537 14.1931 1.08572C13.7119 0.983443 13.222 0.942409 12.2851 0.925873C11.5917 0.913624 10.9324 0.916687 10.82 0.932609ZM11.3849 4.17575C11.3434 4.81149 11.1887 5.10763 10.6297 5.6227C10.0483 6.1584 9.97062 6.40644 10.1397 7.18699C10.3879 8.33179 10.3369 8.40488 9.44361 8.1861C9.1101 8.10443 8.75509 8.03762 8.65458 8.03762C8.31257 8.03762 7.9495 8.24231 7.62447 8.61822C7.16389 9.15104 6.79878 9.34451 6.17909 9.3842C5.90196 9.40195 5.67525 9.44768 5.67525 9.48572C5.67525 9.52383 5.91422 9.79011 6.20621 10.0775C7.37684 11.2293 9.00047 11.6022 10.5312 11.0707C11.0644 10.8855 11.2862 10.8851 11.357 11.0693C11.453 11.319 11.5405 12.4038 11.4995 12.8352C11.4447 13.4109 11.3075 14.0923 11.1667 14.4879L11.0628 14.7796L11.248 14.8569C11.35 14.8994 11.6939 14.9362 12.0125 14.9387C12.7132 14.9441 12.9638 14.8392 13.7161 14.2252C13.9972 13.9958 14.3805 13.731 14.5679 13.6367C14.7552 13.5424 14.9174 13.4576 14.9281 13.4482C14.9389 13.4389 14.887 13.1534 14.8128 12.8139C14.5734 11.719 14.052 10.7724 13.2333 9.94663C12.9741 9.68524 12.7621 9.42312 12.7621 9.36425C12.7621 9.30532 12.8225 9.13894 12.8962 8.99454C13.1392 8.51873 13.3072 7.76855 13.3072 7.15867C13.3072 5.98282 12.9179 5.0474 12.0797 4.20977C11.7895 3.91975 11.5217 3.68239 11.4846 3.68239C11.4475 3.68239 11.4026 3.90437 11.3849 4.17575ZM7.49778 16.2733C7.08553 16.3773 6.63068 16.6408 6.0841 17.0925C5.3626 17.6889 5.09194 17.8014 4.38053 17.8014C3.67008 17.8014 3.3984 17.6895 2.67773 17.0995C1.76808 16.3547 1.38185 16.2419 1.32659 16.7045C1.30935 16.8483 1.34921 16.9095 1.52202 17.0037C1.64141 17.069 1.95425 17.2996 2.21721 17.5162C2.84863 18.0361 3.16909 18.2169 3.70081 18.353C4.6358 18.5924 5.44554 18.374 6.38802 17.6278C7.30481 16.9021 7.4272 16.8497 8.19652 16.8525C8.96319 16.8554 9.10793 16.9163 9.96823 17.5987C10.6612 18.1484 10.9021 18.2757 11.4548 18.3843C12.3693 18.5639 13.1154 18.3439 14.02 17.6278C14.9341 16.9042 15.0592 16.8506 15.8284 16.8506C16.5932 16.8506 16.7297 16.9081 17.6002 17.5987C18.2932 18.1484 18.534 18.2757 19.0869 18.3843C20.007 18.5651 20.7532 18.3432 21.6711 17.6159C22.0137 17.3444 22.3898 17.069 22.507 17.0037C22.6755 16.9101 22.7156 16.8474 22.6985 16.7045C22.6432 16.2419 22.2569 16.3547 21.3473 17.0995C20.6359 17.682 20.3578 17.7963 19.6444 17.7998C18.9255 17.8031 18.6757 17.6967 17.8701 17.0442C17.0305 16.3644 16.7172 16.2411 15.8284 16.2411C14.9402 16.2411 14.6233 16.3656 13.7849 17.0438C12.9808 17.6943 12.7299 17.8014 12.0125 17.8014C11.2929 17.8014 11.0396 17.6936 10.2381 17.0442C9.47808 16.4287 9.08156 16.2595 8.33281 16.2308C8.01423 16.2187 7.63851 16.2377 7.49778 16.2733Z" fill="black"/>
</mask>
<g mask="url(#mask0_56_3513)">
<path fill-rule="evenodd" clip-rule="evenodd" d="M10.8541 0.356291C5.99333 0.845641 1.88924 4.34711 0.665607 9.0487C0.365778 10.2005 0.27215 11.0762 0.306562 12.4047C0.344382 13.8634 0.357806 13.8956 0.976541 14.0105C1.43194 14.095 1.69694 14.2445 2.41026 14.8188C2.65714 15.0176 3.04044 15.2651 3.26205 15.3687C3.62319 15.5376 3.73932 15.5569 4.38053 15.5554C5.26945 15.5533 5.58407 15.4293 6.4221 14.7506C7.22365 14.1014 7.47687 13.9934 8.19652 13.9934C8.91393 13.9934 9.16476 14.1006 9.96891 14.751C10.8073 15.4293 11.1242 15.5537 12.0125 15.5537C12.9013 15.5537 13.2146 15.4305 14.0541 14.7506C14.7468 14.1896 15.0664 14.0348 15.6432 13.981C16.325 13.9174 16.7123 14.065 17.5166 14.6945C18.4707 15.4412 18.7478 15.5533 19.6444 15.5554C20.2857 15.5569 20.4018 15.5376 20.7629 15.3687C20.9845 15.2651 21.3679 15.0176 21.6147 14.8188C22.3281 14.2445 22.5931 14.095 23.0485 14.0105C23.6633 13.8963 23.6752 13.8676 23.7163 12.4085C23.7419 11.4975 23.7229 11.0172 23.6387 10.4476C23.336 8.40005 22.631 6.66217 21.4608 5.07838C19.0082 1.75928 14.9342 -0.0544606 10.8541 0.356291ZM10.82 0.932609C9.37675 1.13771 8.30971 1.44653 7.17629 1.98712C3.99165 3.506 1.66629 6.54799 1.04448 10.0085C0.881687 10.9144 0.805708 12.3034 0.884549 12.9329L0.939336 13.3708L1.24598 13.4495C1.7056 13.5674 2.03943 13.7595 2.71376 14.2943C3.44712 14.876 3.81816 15.0109 4.55519 14.9636C5.14618 14.9257 5.44853 14.7839 6.12574 14.2268C6.75653 13.7078 7.13301 13.5135 7.70617 13.4113C8.5645 13.2581 9.35147 13.4908 10.1376 14.1303L10.5181 14.4397L10.6173 14.2026C10.7854 13.8007 10.939 12.7361 10.9055 12.2045C10.8884 11.9325 10.8591 11.6946 10.8403 11.6759C10.8216 11.6572 10.6101 11.6957 10.3702 11.7615C9.77776 11.9241 8.52878 11.9246 7.92396 11.7625C6.63721 11.4176 5.4112 10.4236 4.88411 9.29791C4.74605 9.00298 4.73747 8.94118 4.81808 8.82155C4.88084 8.72846 4.97357 8.68932 5.10558 8.70029C5.21275 8.70914 5.52056 8.73602 5.78953 8.75997C6.05848 8.78386 6.36131 8.78269 6.46249 8.75731C6.56369 8.73194 6.89602 8.47252 7.20102 8.1808C7.92041 7.4928 8.32634 7.35894 9.22636 7.51301L9.5407 7.56677L9.50724 6.92799C9.46207 6.06572 9.53443 5.8747 10.144 5.24755C10.4169 4.96684 10.6729 4.65095 10.713 4.54561C10.8044 4.30545 10.8045 3.67504 10.7131 3.27906C10.6514 3.01175 10.6595 2.96188 10.7846 2.83687L10.9257 2.696L11.3499 2.91628C13.4431 4.00332 14.4308 6.46864 13.6608 8.6841L13.4479 9.29654L13.7749 9.6368C14.5896 10.4844 15.0779 11.3767 15.3816 12.5728C15.4401 12.8028 15.4879 13.0707 15.4879 13.1682C15.4879 13.3293 15.5124 13.3455 15.757 13.3455C16.5171 13.3455 17.0891 13.5898 17.977 14.2934C18.6506 14.8272 19.0193 14.9787 19.6444 14.9787C20.2695 14.9787 20.6384 14.8271 21.3113 14.294C21.9859 13.7593 22.3197 13.5672 22.7791 13.4495L23.0856 13.3709L23.1396 12.8989C23.214 12.2461 23.1436 10.9153 22.9896 10.0614C22.1735 5.54193 18.7565 2.05537 14.1931 1.08572C13.7119 0.983443 13.222 0.942409 12.2851 0.925873C11.5917 0.913624 10.9324 0.916687 10.82 0.932609ZM11.3849 4.17575C11.3434 4.81149 11.1887 5.10763 10.6297 5.6227C10.0483 6.1584 9.97062 6.40644 10.1397 7.18699C10.3879 8.33179 10.3369 8.40488 9.44361 8.1861C9.1101 8.10443 8.75509 8.03762 8.65458 8.03762C8.31257 8.03762 7.9495 8.24231 7.62447 8.61822C7.16389 9.15104 6.79878 9.34451 6.17909 9.3842C5.90196 9.40195 5.67525 9.44768 5.67525 9.48572C5.67525 9.52383 5.91422 9.79011 6.20621 10.0775C7.37684 11.2293 9.00047 11.6022 10.5312 11.0707C11.0644 10.8855 11.2862 10.8851 11.357 11.0693C11.453 11.319 11.5405 12.4038 11.4995 12.8352C11.4447 13.4109 11.3075 14.0923 11.1667 14.4879L11.0628 14.7796L11.248 14.8569C11.35 14.8994 11.6939 14.9362 12.0125 14.9387C12.7131 14.9441 12.9638 14.8392 13.7161 14.2252C13.9972 13.9958 14.3805 13.731 14.5679 13.6367C14.7552 13.5424 14.9174 13.4576 14.9281 13.4482C14.9389 13.4389 14.887 13.1534 14.8128 12.8139C14.5734 11.719 14.052 10.7724 13.2333 9.94663C12.9741 9.68524 12.7621 9.42312 12.7621 9.36425C12.7621 9.30532 12.8225 9.13894 12.8962 8.99454C13.1392 8.51873 13.3072 7.76855 13.3072 7.15867C13.3072 5.98282 12.9179 5.0474 12.0797 4.20977C11.7895 3.91975 11.5217 3.68239 11.4846 3.68239C11.4475 3.68239 11.4026 3.90437 11.3849 4.17575ZM7.49778 16.2733C7.08553 16.3773 6.63068 16.6408 6.0841 17.0925C5.3626 17.6889 5.09194 17.8014 4.38053 17.8014C3.67008 17.8014 3.3984 17.6895 2.67773 17.0995C1.76808 16.3547 1.38185 16.2419 1.32659 16.7045C1.30935 16.8483 1.34921 16.9095 1.52202 17.0037C1.64141 17.069 1.95425 17.2996 2.21721 17.5162C2.84863 18.0361 3.16909 18.2169 3.70081 18.353C4.6358 18.5924 5.44554 18.374 6.38802 17.6278C7.30481 16.9021 7.4272 16.8497 8.19652 16.8525C8.96319 16.8554 9.10793 16.9163 9.96823 17.5987C10.6612 18.1484 10.9021 18.2756 11.4548 18.3843C12.3693 18.5639 13.1154 18.3439 14.02 17.6278C14.9341 16.9042 15.0592 16.8506 15.8284 16.8506C16.5932 16.8506 16.7297 16.9081 17.6002 17.5987C18.2932 18.1484 18.534 18.2756 19.0869 18.3843C20.007 18.5651 20.7532 18.3432 21.6711 17.6159C22.0137 17.3444 22.3898 17.069 22.507 17.0037C22.6755 16.9101 22.7156 16.8474 22.6985 16.7045C22.6432 16.2419 22.2569 16.3547 21.3473 17.0995C20.6359 17.682 20.3578 17.7963 19.6444 17.7998C18.9255 17.8031 18.6757 17.6967 17.8701 17.0442C17.0305 16.3644 16.7172 16.2411 15.8284 16.2411C14.9402 16.2411 14.6233 16.3656 13.7849 17.0438C12.9808 17.6943 12.7299 17.8014 12.0125 17.8014C11.2929 17.8014 11.0396 17.6936 10.2381 17.0442C9.47808 16.4287 9.08156 16.2595 8.33281 16.2308C8.01423 16.2187 7.63851 16.2377 7.49778 16.2733Z" stroke="#151A29" stroke-width="0.4"/>
</g>
<path fill-rule="evenodd" clip-rule="evenodd" d="M12.0131 1.18109C5.99483 1.18109 1.11607 6.04602 1.11607 12.0472C1.11607 18.0483 5.99484 22.9134 12.0131 22.9134C18.0313 22.9134 22.9102 18.0483 22.9102 12.0472C22.9102 6.04602 18.0313 1.18109 12.0131 1.18109ZM0.0263672 12.0472C0.0263672 5.4459 5.39301 0.0944824 12.0131 0.0944824C18.6331 0.0944824 23.9999 5.44589 23.9999 12.0472C23.9999 18.6484 18.6331 24 12.0131 24C5.393 24 0.0263672 18.6484 0.0263672 12.0472Z" fill="white"/>
</svg>
