<svg width="154" height="40" viewBox="0 0 154 40" fill="none" xmlns="http://www.w3.org/2000/svg">
<path fill-rule="evenodd" clip-rule="evenodd" d="M9.92666 1.64384C5.35218 1.64384 1.64384 5.35218 1.64384 9.92666V30.0733C1.64384 34.6478 5.35218 38.3562 9.92666 38.3562H30.0733C34.6478 38.3562 38.3562 34.6478 38.3562 30.0733V9.92666C38.3562 5.35218 34.6478 1.64384 30.0733 1.64384H9.92666ZM0 9.92666C0 4.44432 4.44432 0 9.92666 0H30.0733C35.5557 0 40 4.44432 40 9.92666V30.0733C40 35.5557 35.5557 40 30.0733 40H9.92666C4.44432 40 0 35.5557 0 30.0733V9.92666Z" fill="url(#paint0_linear_90_146)"/>
<g filter="url(#filter0_d_90_146)">
<path fill-rule="evenodd" clip-rule="evenodd" d="M22.1654 6.08698C22.0226 6.25915 22.1101 7.45098 22.3061 8.00238C22.393 8.24693 22.589 8.65242 22.7416 8.90363C22.8941 9.15477 23.019 9.42009 23.019 9.49323C23.019 9.5663 22.8638 9.91081 22.6742 10.2587C22.2449 11.0461 22.0879 11.6354 22.0936 12.4364C22.1015 13.5387 22.4824 14.5349 23.1813 15.2805C23.6152 15.7434 23.9481 15.6361 24.0617 14.9966C24.1423 14.5433 24.4808 13.969 24.8377 13.6801C25.374 13.246 25.5822 13.1756 26.3277 13.1764C26.9398 13.1771 27.0502 13.2005 27.4068 13.4049C28.1337 13.8218 28.5417 14.5136 28.5512 15.3453C28.5612 16.2281 28.0424 17.0459 27.2131 17.4545C27.2131 17.4545 26.9958 17.5647 26.8546 17.6312C23.501 19.21 17.3633 17.6553 17.3633 17.6553C8.5848 17.6776 7.861 17.6892 7.7257 17.8102C7.59343 17.9286 7.58344 18.026 7.62117 18.8322C7.85309 23.7903 11.3387 28.2974 16.1578 29.8705C16.8484 30.096 18.1569 30.3778 18.5129 30.3778C18.6423 30.3778 18.7689 30.4115 18.7944 30.4527C18.8199 30.494 18.867 31.2577 18.8993 32.1498C18.9437 33.3787 18.9849 33.8044 19.0693 33.9061C19.1652 34.0217 19.2728 34.0338 19.8417 33.9934C20.9647 33.9137 21.9662 33.4723 22.8406 32.6715C23.4459 32.1172 24.0055 31.2972 24.2531 30.6015C24.35 30.3293 24.4645 30.0117 24.5075 29.8958C24.567 29.7352 24.7824 29.5811 25.4101 29.2499C26.8744 28.4775 27.7038 27.8753 28.7571 26.8197C30.6174 24.9552 31.744 22.843 32.2113 20.3432C32.4278 19.1853 32.41 16.6908 32.1774 15.6084C31.5868 12.8596 30.1142 10.3784 28.0409 8.63863C26.6994 7.51282 25.4957 6.83806 23.8327 6.27938C22.8553 5.95098 22.3287 5.89024 22.1654 6.08698ZM9.30373 22.6423C9.30373 22.769 10.007 24.0011 10.4787 24.7008C10.9035 25.3309 10.8191 25.2947 12.132 25.4084C12.6434 25.4527 13.2711 25.5444 13.5268 25.6123C15.0125 26.0064 16.3388 27.1302 17.1136 28.6516C17.5233 29.4562 17.5842 29.4988 18.4402 29.5803L18.9369 29.6277L18.8854 28.9761C18.8175 28.1167 18.6747 27.6036 18.2939 26.8491C17.8982 26.0655 17.4289 25.5263 16.7492 25.0744C15.8187 24.4558 15.3168 24.3198 13.1569 24.1011C11.6287 23.9464 10.7103 23.6253 9.80035 22.9279C9.5272 22.7186 9.30373 22.59 9.30373 22.6423ZM11.7833 26.2643C11.7833 26.3416 12.7536 27.1594 13.3718 27.6031C14.0828 28.1133 16.3039 29.215 16.4093 29.1097C16.5077 29.0112 15.9497 28.1901 15.4252 27.6617C14.7529 26.9845 14.0497 26.5813 13.1309 26.3463C12.5068 26.1867 11.7833 26.1427 11.7833 26.2643Z" fill="url(#paint1_linear_90_146)"/>
<path d="M12.6 20.5553C12.6 20.912 12.311 21.2011 11.9543 21.2011C11.5977 21.2011 11.3086 20.912 11.3086 20.5553C11.3086 20.1987 11.5977 19.9096 11.9543 19.9096C12.311 19.9096 12.6 20.1987 12.6 20.5553Z" fill="#FAFAFA"/>
</g>
<g filter="url(#filter1_d_90_146)">
<path d="M14.1613 14.4272C14.0405 14.283 13.8186 14.1534 13.6009 14.0999C13.5813 14.0951 13.4815 14.0939 13.3791 14.0972C13.1889 14.1033 13.0324 14.1453 12.906 14.2243C12.7168 14.3422 12.559 14.5349 12.473 14.7529C12.4368 14.8448 12.4312 14.8889 12.4317 15.0803C12.4321 15.2762 12.4375 15.3149 12.4786 15.4195C12.5612 15.6296 12.6907 15.7922 12.864 15.9032C13.0701 16.0353 13.1605 16.0612 13.4146 16.0606C13.611 16.0602 13.6498 16.0548 13.7547 16.0138C13.9654 15.9314 14.1284 15.8022 14.2397 15.6294C14.3721 15.4239 14.3981 15.3336 14.3975 15.0803C14.397 14.8843 14.3917 14.8456 14.3506 14.741C14.2953 14.6002 14.267 14.5535 14.1613 14.4272Z" fill="url(#paint2_linear_90_146)"/>
<path d="M11.3229 11.8858C11.2021 11.7416 10.9803 11.612 10.7624 11.5585C10.7429 11.5537 10.6432 11.5525 10.5407 11.5558C10.3505 11.5619 10.194 11.6039 10.0675 11.6828C9.87844 11.8008 9.72063 11.9935 9.63462 12.2115C9.5984 12.3033 9.59286 12.3474 9.59328 12.5388C9.59371 12.7347 9.59906 12.7735 9.64016 12.878C9.72276 13.0881 9.85232 13.2508 10.0255 13.3618C10.2317 13.4939 10.3222 13.5197 10.5762 13.5192C10.7726 13.5187 10.8115 13.5134 10.9163 13.4724C11.1269 13.39 11.29 13.2608 11.4013 13.088C11.5338 12.8824 11.5597 12.7922 11.5591 12.5388C11.5586 12.3429 11.5533 12.3042 11.5122 12.1996C11.4569 12.0588 11.4286 12.012 11.3229 11.8858Z" fill="url(#paint3_linear_90_146)"/>
<path d="M17.0031 11.8858C16.8823 11.7416 16.6604 11.612 16.4426 11.5585C16.4231 11.5537 16.3233 11.5525 16.2209 11.5558C16.0307 11.5619 15.8742 11.6039 15.7478 11.6828C15.5586 11.8008 15.4008 11.9935 15.3148 12.2115C15.2786 12.3033 15.273 12.3474 15.2735 12.5388C15.2739 12.7347 15.2793 12.7735 15.3204 12.878C15.4029 13.0881 15.5325 13.2508 15.7058 13.3618C15.9119 13.4939 16.0023 13.5197 16.2564 13.5192C16.4528 13.5187 16.4916 13.5134 16.5965 13.4724C16.8072 13.39 16.9702 13.2608 17.0815 13.088C17.2139 12.8824 17.2399 12.7922 17.2393 12.5388C17.2388 12.3429 17.2335 12.3042 17.1924 12.1996C17.137 12.0588 17.1088 12.012 17.0031 11.8858Z" fill="url(#paint4_linear_90_146)"/>
</g>
<g filter="url(#filter2_d_90_146)">
<path d="M51.2529 28.9101C50.8597 28.9101 50.5113 28.6574 50.3886 28.2837L47.0456 18.066C46.8536 17.4782 47.2917 16.8741 47.9099 16.8741H48.3787C48.7748 16.8741 49.1248 17.1301 49.2453 17.507L51.037 23.126C51.1847 23.569 51.316 24.0284 51.4307 24.5043C51.4671 24.6497 51.5035 24.7984 51.5399 24.9503C51.5933 25.1753 51.9405 25.1718 51.9967 24.9473C52.095 24.6028 52.1933 24.2828 52.2922 23.9874C52.3905 23.6757 52.4809 23.3885 52.5627 23.126L54.3776 17.504C54.4987 17.1285 54.8481 16.8741 55.2431 16.8741H56.2795C56.675 16.8741 57.0251 17.1301 57.1455 17.507L58.9372 23.126C59.0031 23.2737 59.0605 23.4706 59.1094 23.7167C59.1753 23.9464 59.2492 24.1926 59.331 24.4551C59.4128 24.7176 59.4867 24.9802 59.5526 25.2427C59.5941 25.4081 59.843 25.4054 59.8793 25.2388C59.8935 25.1737 59.9077 25.1094 59.9219 25.0458C60.0038 24.734 60.0856 24.4305 60.168 24.1351C60.2663 23.8233 60.3731 23.487 60.4879 23.126L62.3029 17.504C62.4239 17.1285 62.7734 16.8741 63.1677 16.8741H63.6468C64.2701 16.8741 64.7088 17.4872 64.5071 18.0771L61.0181 28.2948C60.8919 28.6628 60.5464 28.9101 60.1572 28.9101H59.2781C58.8843 28.9101 58.5349 28.6563 58.4133 28.2815L56.525 22.4614C56.3284 21.8543 56.1642 21.321 56.0329 20.8615C56.0261 20.8322 56.0187 20.8031 56.0119 20.7744C55.9511 20.5199 55.5414 20.5122 55.467 20.7631C55.3522 21.1897 55.1879 21.764 54.9749 22.486L53.0872 28.2825C52.965 28.6568 52.6161 28.9101 52.2229 28.9101H51.2529Z" fill="#FAFAFA"/>
<path d="M69.2147 27.9764C69.2147 28.4785 68.8078 28.8855 68.3055 28.8855H67.8105C67.3082 28.8855 66.9014 28.4785 66.9014 27.9764V11.7037C66.9014 11.2016 67.3082 10.7946 67.8105 10.7946H68.3055C68.8078 10.7946 69.2147 11.2016 69.2147 11.7037V16.4289C69.2147 17.0554 70.292 17.4502 70.8393 17.1449C71.545 16.7346 72.365 16.5295 73.3003 16.5295C74.8266 16.5295 75.9665 16.9808 76.7217 17.8833C77.4763 18.7858 77.8536 20.0082 77.8536 21.5507V28.001C77.8536 28.5031 77.4468 28.9101 76.9444 28.9101H76.4495C75.9472 28.9101 75.5403 28.5031 75.5403 28.001V22.0676C75.5403 21.2472 75.417 20.5908 75.171 20.0985C74.9414 19.5898 74.605 19.2206 74.1618 18.9909C73.735 18.7612 73.235 18.6463 72.6605 18.6463C71.9223 18.6463 71.2904 18.8104 70.7654 19.1386C70.2568 19.4667 69.871 19.9098 69.6085 20.4677C69.3459 21.0256 69.2147 21.6491 69.2147 22.3383V27.9764Z" fill="#FAFAFA"/>
<path d="M84.5774 29.2055C83.2977 29.2055 82.2885 28.8691 81.5498 28.1964C80.8281 27.5236 80.4673 26.6457 80.4673 25.5627C80.4673 24.4633 80.8611 23.5854 81.6487 22.9291C82.4362 22.2563 83.5352 21.8624 84.9467 21.7476L88.3931 21.479C88.5869 21.4639 88.7369 21.3022 88.7369 21.1076C88.7369 20.4349 88.6136 19.9016 88.3675 19.5078C88.1215 19.0976 87.7851 18.8104 87.3583 18.6463C86.9316 18.4658 86.448 18.3755 85.9065 18.3755C84.9382 18.3755 84.1836 18.5806 83.642 18.9909C83.3522 19.208 83.1426 19.4776 83.013 19.7996C82.8249 20.2652 82.4476 20.6892 81.9453 20.6892H81.7453C81.2435 20.6892 80.823 20.2774 80.9276 19.7863C81.0281 19.3158 81.2105 18.8866 81.4765 18.4986C81.9027 17.875 82.5016 17.391 83.2727 17.0464C84.0603 16.7018 84.9711 16.5295 86.0048 16.5295C87.0054 16.5295 87.8754 16.71 88.6136 17.071C89.3682 17.4156 89.9506 17.9489 90.3609 18.6709C90.7877 19.3765 91.0007 20.2708 91.0007 21.3538V28.001C91.0007 28.5031 90.5939 28.9101 90.0916 28.9101H89.4227C89.1994 28.9101 89.0108 28.744 88.9829 28.5225C88.9267 28.0788 88.1726 27.9068 87.8226 28.1852C87.6248 28.3423 87.4049 28.4854 87.1617 28.6148C86.4065 29.0086 85.5456 29.2055 84.5774 29.2055ZM85.2416 27.4087C86.3412 27.4087 87.2026 27.0805 87.826 26.4242C88.4493 25.7514 88.7613 24.8489 88.7613 23.7167C88.7613 23.3718 88.467 23.1003 88.1232 23.1278L85.6849 23.3229C84.6677 23.4213 83.929 23.6593 83.4699 24.0366C83.0266 24.4141 82.805 24.8981 82.805 25.4889C82.805 26.1288 83.0187 26.6129 83.4454 26.9411C83.8881 27.2528 84.487 27.4087 85.2416 27.4087Z" fill="#FAFAFA"/>
<path d="M96.5678 28.001C96.5678 28.5031 96.1609 28.9101 95.6586 28.9101H95.1631C94.6613 28.9101 94.2539 28.5031 94.2539 28.001V11.7037C94.2539 11.2016 94.6613 10.7946 95.1631 10.7946H95.6586C96.1609 10.7946 96.5678 11.2016 96.5678 11.7037V28.001Z" fill="#FAFAFA"/>
<path d="M105.166 29.2055C104.001 29.2055 102.968 28.943 102.065 28.4179C101.163 27.8764 100.457 27.138 99.9487 26.2027C99.4401 25.2509 99.1855 24.1515 99.1855 22.9044C99.1855 21.6409 99.4316 20.5333 99.9243 19.5816C100.433 18.6299 101.122 17.8833 101.992 17.3418C102.877 16.8003 103.903 16.5295 105.068 16.5295C106.216 16.5295 107.209 16.7757 108.046 17.2679C108.899 17.7602 109.555 18.4494 110.015 19.3355C110.491 20.2215 110.729 21.2635 110.729 22.4614C110.729 22.9375 110.344 23.3238 109.867 23.3249L101.218 23.3456C100.779 23.3466 100.428 22.9844 100.442 22.5467C100.455 22.1287 100.798 21.7968 101.216 21.7968H107.506C108.008 21.7968 108.431 21.3844 108.321 20.8942C108.189 20.3002 107.917 19.7971 107.505 19.3847C106.897 18.7776 106.085 18.474 105.068 18.474C104.297 18.474 103.632 18.6463 103.075 18.9909C102.533 19.3191 102.114 19.8113 101.819 20.4677C101.54 21.1076 101.401 21.8789 101.401 22.7814C101.401 24.2253 101.729 25.3412 102.385 26.1288C103.042 26.9001 103.985 27.2857 105.216 27.2857C106.118 27.2857 106.856 27.1051 107.431 26.7442C107.814 26.5033 108.113 26.1893 108.329 25.8023C108.526 25.4475 108.867 25.1689 109.274 25.1689H109.61C110.195 25.1689 110.633 25.7186 110.393 26.2516C110.045 27.0231 109.533 27.655 108.858 28.1471C107.89 28.8527 106.66 29.2055 105.166 29.2055Z" fill="#FAFAFA"/>
</g>
<g filter="url(#filter3_d_90_146)">
<path d="M115.31 27.9764C115.31 28.4785 114.902 28.8855 114.4 28.8855H113.897C113.395 28.8855 112.988 28.4785 112.988 27.9764V11.7037C112.988 11.2016 113.395 10.7946 113.897 10.7946H114.4C114.902 10.7946 115.31 11.2016 115.31 11.7037V16.4251C115.31 17.0539 116.39 17.4506 116.939 17.1449C117.647 16.7346 118.47 16.5295 119.408 16.5295C120.939 16.5295 122.083 16.9808 122.84 17.8833C123.597 18.7858 123.976 20.0082 123.976 21.5507V28.001C123.976 28.5031 123.569 28.9101 123.067 28.9101H122.564C122.062 28.9101 121.655 28.5031 121.655 28.001V22.0676C121.655 21.2472 121.532 20.5908 121.285 20.0985C121.054 19.5898 120.717 19.2206 120.273 18.9909C119.844 18.7612 119.342 18.6463 118.766 18.6463C118.025 18.6463 117.392 18.8104 116.865 19.1386C116.355 19.4667 115.968 19.9098 115.704 20.4677C115.441 21.0256 115.31 21.6491 115.31 22.3383V27.9764Z" fill="url(#paint5_linear_90_146)"/>
<path d="M135.537 17.7833C135.537 17.2812 135.943 16.8741 136.446 16.8741H136.924C137.425 16.8741 137.833 17.2812 137.833 17.7833V28.001C137.833 28.5031 137.425 28.9102 136.924 28.9102H136.172C135.935 28.9102 135.735 28.7353 135.703 28.5008C135.642 28.0498 134.944 27.8784 134.586 28.1598C134.376 28.3255 134.141 28.4772 133.882 28.6148C133.141 29.0086 132.327 29.2055 131.438 29.2055C130.038 29.2055 128.952 28.7707 128.178 27.901C127.421 27.0149 127.042 25.8335 127.042 24.3567V17.7833C127.042 17.2812 127.449 16.8741 127.952 16.8741H128.455C128.956 16.8741 129.364 17.2812 129.364 17.7833V23.5937C129.364 24.8736 129.619 25.7925 130.129 26.3504C130.656 26.8918 131.363 27.1626 132.252 27.1626C133.322 27.1626 134.137 26.8344 134.697 26.1781C135.256 25.5053 135.537 24.5207 135.537 23.2244V17.7833Z" fill="url(#paint6_linear_90_146)"/>
<path d="M143.334 28.4672C143.314 28.7173 143.106 28.9102 142.854 28.9102H142.109C141.607 28.9102 141.2 28.5031 141.2 28.001V11.7038C141.2 11.2017 141.607 10.7946 142.109 10.7946H142.612C143.114 10.7946 143.521 11.2016 143.521 11.7038V16.3894C143.521 17.0265 144.711 17.4434 145.274 17.1449C146.048 16.7347 146.929 16.5295 147.916 16.5295C149.069 16.5295 150.056 16.8085 150.879 17.3664C151.702 17.9079 152.336 18.6627 152.78 19.6309C153.225 20.599 153.447 21.7066 153.447 22.9537C153.447 24.1516 153.217 25.2263 152.755 26.1781C152.295 27.1298 151.636 27.8764 150.78 28.4179C149.941 28.943 148.937 29.2055 147.768 29.2055C146.83 29.2055 145.974 28.9922 145.2 28.5656C144.959 28.4297 144.736 28.2746 144.532 28.1004C144.16 27.7833 143.372 27.9797 143.334 28.4672ZM143.546 22.8552C143.546 23.6921 143.694 24.4305 143.99 25.0705C144.303 25.7104 144.739 26.2109 145.299 26.5719C145.875 26.9329 146.558 27.1134 147.348 27.1134C148.138 27.1134 148.813 26.9329 149.373 26.5719C149.932 26.2109 150.361 25.7104 150.657 25.0705C150.969 24.4305 151.126 23.6921 151.126 22.8552C151.126 22.0348 150.969 21.3128 150.657 20.6892C150.361 20.0493 149.932 19.5488 149.373 19.1878C148.813 18.8104 148.138 18.6217 147.348 18.6217C146.558 18.6217 145.875 18.8022 145.299 19.1632C144.739 19.5242 144.303 20.0247 143.99 20.6646C143.694 21.2882 143.546 22.0184 143.546 22.8552Z" fill="url(#paint7_linear_90_146)"/>
</g>
<defs>
<filter id="filter0_d_90_146" x="7.60205" y="5.97479" width="25.0266" height="28.305" filterUnits="userSpaceOnUse" color-interpolation-filters="sRGB">
<feFlood flood-opacity="0" result="BackgroundImageFix"/>
<feColorMatrix in="SourceAlpha" type="matrix" values="0 0 0 0 0 0 0 0 0 0 0 0 0 0 0 0 0 0 127 0" result="hardAlpha"/>
<feOffset dx="0.265388" dy="0.265388"/>
<feComposite in2="hardAlpha" operator="out"/>
<feColorMatrix type="matrix" values="0 0 0 0 0 0 0 0 0 0 0 0 0 0 0 0 0 0 0.25 0"/>
<feBlend mode="normal" in2="BackgroundImageFix" result="effect1_dropShadow_90_146"/>
<feBlend mode="normal" in="SourceGraphic" in2="effect1_dropShadow_90_146" result="shape"/>
</filter>
<filter id="filter1_d_90_146" x="9.59326" y="11.5539" width="7.91138" height="4.77213" filterUnits="userSpaceOnUse" color-interpolation-filters="sRGB">
<feFlood flood-opacity="0" result="BackgroundImageFix"/>
<feColorMatrix in="SourceAlpha" type="matrix" values="0 0 0 0 0 0 0 0 0 0 0 0 0 0 0 0 0 0 127 0" result="hardAlpha"/>
<feOffset dx="0.265388" dy="0.265388"/>
<feComposite in2="hardAlpha" operator="out"/>
<feColorMatrix type="matrix" values="0 0 0 0 0 0 0 0 0 0 0 0 0 0 0 0 0 0 0.25 0"/>
<feBlend mode="normal" in2="BackgroundImageFix" result="effect1_dropShadow_90_146"/>
<feBlend mode="normal" in="SourceGraphic" in2="effect1_dropShadow_90_146" result="shape"/>
</filter>
<filter id="filter2_d_90_146" x="47" y="10.7946" width="63.929" height="18.6109" filterUnits="userSpaceOnUse" color-interpolation-filters="sRGB">
<feFlood flood-opacity="0" result="BackgroundImageFix"/>
<feColorMatrix in="SourceAlpha" type="matrix" values="0 0 0 0 0 0 0 0 0 0 0 0 0 0 0 0 0 0 127 0" result="hardAlpha"/>
<feOffset dx="0.2" dy="0.2"/>
<feComposite in2="hardAlpha" operator="out"/>
<feColorMatrix type="matrix" values="0 0 0 0 0 0 0 0 0 0 0 0 0 0 0 0 0 0 0.25 0"/>
<feBlend mode="normal" in2="BackgroundImageFix" result="effect1_dropShadow_90_146"/>
<feBlend mode="normal" in="SourceGraphic" in2="effect1_dropShadow_90_146" result="shape"/>
</filter>
<filter id="filter3_d_90_146" x="112.988" y="10.7946" width="40.6585" height="18.611" filterUnits="userSpaceOnUse" color-interpolation-filters="sRGB">
<feFlood flood-opacity="0" result="BackgroundImageFix"/>
<feColorMatrix in="SourceAlpha" type="matrix" values="0 0 0 0 0 0 0 0 0 0 0 0 0 0 0 0 0 0 127 0" result="hardAlpha"/>
<feOffset dx="0.2" dy="0.2"/>
<feComposite in2="hardAlpha" operator="out"/>
<feColorMatrix type="matrix" values="0 0 0 0 0 0 0 0 0 0 0 0 0 0 0 0 0 0 0.25 0"/>
<feBlend mode="normal" in2="BackgroundImageFix" result="effect1_dropShadow_90_146"/>
<feBlend mode="normal" in="SourceGraphic" in2="effect1_dropShadow_90_146" result="shape"/>
</filter>
<linearGradient id="paint0_linear_90_146" x1="20" y1="0.6282" x2="20" y2="39.3718" gradientUnits="userSpaceOnUse">
<stop stop-color="#00CC99"/>
<stop offset="1" stop-color="#005F99"/>
</linearGradient>
<linearGradient id="paint1_linear_90_146" x1="19.9827" y1="5.97481" x2="19.9827" y2="34.0144" gradientUnits="userSpaceOnUse">
<stop stop-color="#00CC99"/>
<stop offset="1" stop-color="#005F99"/>
</linearGradient>
<linearGradient id="paint2_linear_90_146" x1="13.4163" y1="11.5539" x2="13.4163" y2="16.0606" gradientUnits="userSpaceOnUse">
<stop stop-color="#00CC99"/>
<stop offset="1" stop-color="#005F99"/>
</linearGradient>
<linearGradient id="paint3_linear_90_146" x1="13.4163" y1="11.5539" x2="13.4163" y2="16.0606" gradientUnits="userSpaceOnUse">
<stop stop-color="#00CC99"/>
<stop offset="1" stop-color="#005F99"/>
</linearGradient>
<linearGradient id="paint4_linear_90_146" x1="13.4162" y1="11.5539" x2="13.4162" y2="16.0606" gradientUnits="userSpaceOnUse">
<stop stop-color="#00CC99"/>
<stop offset="1" stop-color="#005F99"/>
</linearGradient>
<linearGradient id="paint5_linear_90_146" x1="133.218" y1="10.7946" x2="133.218" y2="29.2055" gradientUnits="userSpaceOnUse">
<stop stop-color="#00CC99"/>
<stop offset="1" stop-color="#005F99"/>
</linearGradient>
<linearGradient id="paint6_linear_90_146" x1="133.218" y1="10.7946" x2="133.218" y2="29.2055" gradientUnits="userSpaceOnUse">
<stop stop-color="#00CC99"/>
<stop offset="1" stop-color="#005F99"/>
</linearGradient>
<linearGradient id="paint7_linear_90_146" x1="133.218" y1="10.7946" x2="133.218" y2="29.2055" gradientUnits="userSpaceOnUse">
<stop stop-color="#00CC99"/>
<stop offset="1" stop-color="#005F99"/>
</linearGradient>
</defs>
</svg>
